# xmcd CD database file
#
# Track frame offsets:
#	150
#	11210
#	24978
#	36975
#	52120
#	65829
#	79945
#	81000
#	92744
#	106108
#	117025
#	121510
#	141169
#	156191
#	168850
#	169150
#	183864
#	204220
#	216994
#
# Disc length: 3175 seconds
#
# Revision: 0
# Processed by: cddbd v1.4PL0 Copyright (c) Steve Scherf et al.
# Submitted via: CDex 1.40Release
#
DISCID=f80c6513
DTITLE=Conway Twitty - 20 Greatest Hits
DYEAR=1900
DGENRE=Country
TTITLE0=Hello Darlin'
TTITLE1=Fifteen Years Ago
TTITLE2=I Can't See Me Without You
TTITLE3=(Lost Her Love) On Our Last Date
TTITLE4=Baby's Gone
TTITLE5=You've Never Been This Far Before
TTITLE6=I'm Not Through Loving You Yet
TTITLE7=(Lying Here With)Linda On My Mind
TTITLE8=There's A Honky Tonk Angel(Who'll Take Me Back In)
TTITLE9=I Can't Believe She Gives It All To Me
TTITLE10=I See The Want To In Your Eyes
TTITLE11=Don't Cry Joni
TTITLE12=Georgia Keeps Pulling On My Ring
TTITLE13=I've Already Loved You In My Mind
TTITLE14=Don't Take It Away
TTITLE15=I May Never Get To Heaven
TTITLE16=I'd Love To Lay You Down
TTITLE17=Rest Your Love On Me
TTITLE18=Tight Fighting Jeans
EXTD=ID3G: 2
EXTT0=
EXTT1=
EXTT2=
EXTT3=
EXTT4=
EXTT5=
EXTT6=
EXTT7=
EXTT8=
EXTT9=
EXTT10=
EXTT11=
EXTT12=
EXTT13=
EXTT14=
EXTT15=
EXTT16=
EXTT17=
EXTT18=
PLAYORDER=
